<svg width="810" height="625" viewBox="0 0 810 625" fill="none" xmlns="http://www.w3.org/2000/svg">
<g clip-path="url(#clip0_1110_11111)">
<rect width="809.741" height="624.657" fill="#151515"/>
<g filter="url(#filter0_df_1110_11111)">
<path d="M1275.77 681.628L785.731 65.9994L32.7125 274.309L458.765 956.999L1275.77 681.628Z" fill="#58FF71"/>
<path d="M1275.77 681.628L785.731 65.9994L32.7125 274.309L458.765 956.999L1275.77 681.628Z" stroke="#6D3190" stroke-width="110.243"/>
</g>
<path d="M191.06 360.3H127.083L115.065 396H77.1267L139.101 222.332H180.102L241.605 396H202.253L191.06 360.3ZM180.927 330.374L159.248 262.038L136.862 330.374H180.927ZM330.795 399.417C320.191 399.417 311.669 397.296 305.228 393.054C301.379 390.541 297.216 386.142 292.739 379.859V396H259.867V222.568H293.328V284.306C297.57 278.336 302.243 273.78 307.349 270.639C313.397 266.711 321.095 264.747 330.442 264.747C347.329 264.747 360.525 270.835 370.03 283.01C379.612 295.185 384.404 310.894 384.404 330.138C384.404 350.089 379.691 366.623 370.265 379.741C360.84 392.858 347.683 399.417 330.795 399.417ZM349.175 333.673C349.175 324.561 347.997 317.021 345.641 311.051C341.163 299.74 332.916 294.085 320.898 294.085C308.723 294.085 300.358 299.622 295.802 310.698C293.446 316.589 292.268 324.208 292.268 333.555C292.268 344.552 294.703 353.663 299.573 360.889C304.443 368.116 311.865 371.729 321.841 371.729C330.481 371.729 337.197 368.234 341.988 361.243C346.78 354.252 349.175 345.062 349.175 333.673ZM515.656 283.834C526.496 297.423 531.916 313.486 531.916 332.023C531.916 350.875 526.496 367.016 515.656 380.448C504.817 393.801 488.361 400.477 466.289 400.477C444.218 400.477 427.762 393.801 416.922 380.448C406.083 367.016 400.663 350.875 400.663 332.023C400.663 313.486 406.083 297.423 416.922 283.834C427.762 270.246 444.218 263.451 466.289 263.451C488.361 263.451 504.817 270.246 515.656 283.834ZM466.171 291.846C456.353 291.846 448.773 295.342 443.432 302.332C438.169 309.245 435.538 319.141 435.538 332.023C435.538 344.905 438.169 354.841 443.432 361.832C448.773 368.823 456.353 372.318 466.171 372.318C475.99 372.318 483.53 368.823 488.793 361.832C494.056 354.841 496.687 344.905 496.687 332.023C496.687 319.141 494.056 309.245 488.793 302.332C483.53 295.342 475.99 291.846 466.171 291.846ZM638.426 377.856C638.111 378.248 637.326 379.427 636.069 381.39C634.813 383.354 633.32 385.082 631.592 386.574C626.329 391.287 621.224 394.508 616.275 396.236C611.405 397.964 605.671 398.828 599.073 398.828C580.065 398.828 567.262 391.994 560.664 378.327C556.972 370.786 555.126 359.672 555.126 344.984V267.575H589.53V344.984C589.53 352.288 590.394 357.787 592.122 361.478C595.185 367.998 601.194 371.258 610.149 371.258C621.617 371.258 629.471 366.623 633.713 357.355C635.912 352.328 637.012 345.69 637.012 337.443V267.575H671.062V396H638.426V377.856ZM762.373 372.082V397.178L746.467 397.767C730.601 398.317 719.761 395.568 713.949 389.52C710.179 385.671 708.293 379.741 708.293 371.729V292.671H690.385V268.753H708.293V232.936H741.519V268.753H762.373V292.671H741.519V360.536C741.519 365.799 742.187 369.098 743.522 370.433C744.857 371.69 748.942 372.318 755.775 372.318C756.796 372.318 757.857 372.318 758.956 372.318C760.135 372.239 761.274 372.161 762.373 372.082Z" fill="#463159"/>
</g>
<defs>
<filter id="filter0_df_1110_11111" x="-206.609" y="-150.319" width="1727.92" height="1326.95" filterUnits="userSpaceOnUse" color-interpolation-filters="sRGB">
<feFlood flood-opacity="0" result="BackgroundImageFix"/>
<feColorMatrix in="SourceAlpha" type="matrix" values="0 0 0 0 0 0 0 0 0 0 0 0 0 0 0 0 0 0 127 0" result="hardAlpha"/>
<feOffset dy="9.76327"/>
<feGaussianBlur stdDeviation="30.7543"/>
<feComposite in2="hardAlpha" operator="out"/>
<feColorMatrix type="matrix" values="0 0 0 0 0 0 0 0 0 0 0 0 0 0 0 0 0 0 0.25 0"/>
<feBlend mode="normal" in2="BackgroundImageFix" result="effect1_dropShadow_1110_11111"/>
<feBlend mode="normal" in="SourceGraphic" in2="effect1_dropShadow_1110_11111" result="shape"/>
<feGaussianBlur stdDeviation="76.7376" result="effect2_foregroundBlur_1110_11111"/>
</filter>
<clipPath id="clip0_1110_11111">
<rect width="809.741" height="624.657" fill="white"/>
</clipPath>
</defs>
</svg>
