<svg width="66" height="66" viewBox="0 0 66 66" fill="none" xmlns="http://www.w3.org/2000/svg">
<g clip-path="url(#clip0_4190_629)">
<mask id="mask0_4190_629" style="mask-type:luminance" maskUnits="userSpaceOnUse" x="0" y="0" width="66" height="66">
<path d="M59.4 0H6.6C2.95492 0 0 2.84127 0 6.34615V59.6538C0 63.1587 2.95492 66 6.6 66H59.4C63.0451 66 66 63.1587 66 59.6538V6.34615C66 2.84127 63.0451 0 59.4 0Z" fill="white"/>
</mask>
<g mask="url(#mask0_4190_629)">
<mask id="mask1_4190_629" style="mask-type:luminance" maskUnits="userSpaceOnUse" x="0" y="0" width="66" height="66">
<path d="M66 0H0V66H66V0Z" fill="white"/>
</mask>
<g mask="url(#mask1_4190_629)">
<path d="M66 0H0V66H66V0Z" fill="#232323"/>
<path d="M32.9579 50.1376C43.6606 50.1376 52.3368 41.8396 52.3368 31.6034C52.3368 21.3672 43.6606 13.0691 32.9579 13.0691C22.2552 13.0691 13.579 21.3672 13.579 31.6034C13.579 41.8396 22.2552 50.1376 32.9579 50.1376Z" fill="#D9D9D9"/>
<path d="M50.8741 27.0418H49.9374C49.5035 26.7967 49.0423 26.5988 48.5624 26.4517C47.0499 25.9733 45.0527 25.7267 42.6241 25.7267C40.1955 25.7267 38.1984 25.9733 36.6893 26.4517C35.481 26.8371 34.949 27.2621 34.7772 27.4273C34.2223 27.1735 33.6151 27.0418 33 27.0418C32.3849 27.0418 31.7777 27.1735 31.2228 27.4273C31.0509 27.2629 30.519 26.8371 29.3107 26.4517C27.7999 25.9733 25.8027 25.7267 23.3741 25.7267C20.9456 25.7267 18.9483 25.9733 17.4393 26.4517C16.9594 26.5988 16.4982 26.7967 16.0643 27.0418H15.1241C14.7595 27.0418 14.4097 27.1804 14.1519 27.4269C13.894 27.6736 13.7491 28.0081 13.7491 28.3568C13.7491 28.7056 13.894 29.0401 14.1519 29.2868C14.4097 29.5333 14.7595 29.6719 15.1241 29.6719H15.1388C15.2247 33.4084 15.6922 35.6538 16.695 37.2525C17.3233 38.2846 18.2864 39.0926 19.4382 39.5539C20.4892 39.9845 21.7774 40.1941 23.3741 40.1941C25.4495 40.1941 28.3997 39.8892 30.0532 37.2541C30.885 35.9275 31.35 34.1563 31.5322 31.4579C31.5927 31.3077 31.6238 31.148 31.6241 30.987C31.6241 30.6383 31.769 30.3038 32.0268 30.0571C32.2848 29.8105 32.6345 29.6719 32.9991 29.6719C33.3637 29.6719 33.7135 29.8105 33.9714 30.0571C34.2293 30.3038 34.3741 30.6383 34.3741 30.987C34.3746 31.1475 34.4057 31.3066 34.4661 31.4563C34.6483 34.1547 35.1132 35.9259 35.9451 37.2525C36.5732 38.2846 37.5364 39.0926 38.6882 39.5539C39.7392 39.9845 41.0274 40.1941 42.6241 40.1941C44.6995 40.1941 47.6498 39.8892 49.3032 37.2541C50.3061 35.6555 50.7753 33.41 50.8595 29.6736H50.8741C51.2388 29.6736 51.5885 29.535 51.8464 29.2885C52.1042 29.0418 52.2491 28.7073 52.2491 28.3585C52.2491 28.0098 52.1042 27.6753 51.8464 27.4286C51.5885 27.182 51.2388 27.0434 50.8741 27.0434V27.0418Z" fill="#232323"/>
<path d="M28.3585 23.0965H18.3898V24.5759H28.3585V23.0965Z" fill="#232323"/>
<path d="M36.5235 43.5629H29.3906V44.6314H36.5235V43.5629Z" fill="#232323"/>
<path d="M47.954 21.6166H35.2352V23.0961H47.954V21.6166Z" fill="#232323"/>
</g>
</g>
</g>
<defs>
<clipPath id="clip0_4190_629">
<rect width="66" height="66" fill="white"/>
</clipPath>
</defs>
</svg>
