<svg width="66" height="66" viewBox="0 0 66 66" fill="none" xmlns="http://www.w3.org/2000/svg">
<rect width="66" height="66" rx="8" fill="#232323"/>
<path d="M54 33C54 44.598 44.598 54 33 54C21.402 54 12 44.598 12 33C12 21.402 21.402 12 33 12C44.598 12 54 21.402 54 33Z" fill="#D9D9D9"/>
<path d="M51.6875 26.5312H50.7082C50.2546 26.2633 49.7724 26.047 49.2707 25.8862C47.6895 25.3633 45.6015 25.0938 43.0625 25.0938C40.5235 25.0938 38.4355 25.3633 36.8579 25.8862C35.5947 26.3075 35.0386 26.772 34.8589 26.9526C34.2788 26.6752 33.6439 26.5313 33.0009 26.5313C32.3579 26.5313 31.723 26.6752 31.1429 26.9526C30.9632 26.7729 30.4071 26.3075 29.1439 25.8862C27.5645 25.3633 25.4765 25.0938 22.9375 25.0938C20.3985 25.0938 18.3105 25.3633 16.7329 25.8862C16.2312 26.047 15.749 26.2633 15.2954 26.5312H14.3125C13.9313 26.5312 13.5656 26.6827 13.296 26.9523C13.0265 27.2219 12.875 27.5875 12.875 27.9688C12.875 28.35 13.0265 28.7156 13.296 28.9852C13.5656 29.2548 13.9313 29.4062 14.3125 29.4062H14.3278C14.4176 33.4905 14.9064 35.9451 15.9548 37.6925C16.6116 38.8207 17.6185 39.704 18.8227 40.2082C19.9214 40.6789 21.2682 40.908 22.9375 40.908C25.1072 40.908 28.1916 40.5747 29.9202 37.6943C30.7898 36.2443 31.2759 34.3081 31.4664 31.3586C31.5297 31.1943 31.5622 31.0198 31.5625 30.8438C31.5625 30.4625 31.714 30.0969 31.9835 29.8273C32.2531 29.5577 32.6188 29.4062 33 29.4062C33.3812 29.4062 33.7469 29.5577 34.0165 29.8273C34.2861 30.0969 34.4375 30.4625 34.4375 30.8438C34.438 31.0192 34.4706 31.1931 34.5336 31.3568C34.7241 34.3063 35.2102 36.2425 36.0798 37.6925C36.7366 38.8207 37.7435 39.704 38.9477 40.2082C40.0464 40.6789 41.3932 40.908 43.0625 40.908C45.2322 40.908 48.3166 40.5747 50.0452 37.6943C51.0936 35.9469 51.5842 33.4923 51.6722 29.408H51.6875C52.0687 29.408 52.4344 29.2566 52.704 28.987C52.9736 28.7174 53.125 28.3518 53.125 27.9705C53.125 27.5893 52.9736 27.2237 52.704 26.9541C52.4344 26.6845 52.0687 26.533 51.6875 26.533V26.5312Z" fill="black"/>
<path d="M17 22H29V24H17V22Z" fill="black"/>
<path d="M28 45H38V46H28V45Z" fill="black"/>
<path d="M35 20H47V22H35V20Z" fill="black"/>
</svg>
