<svg width="100" height="104" viewBox="0 0 100 104" fill="none" xmlns="http://www.w3.org/2000/svg">
<g clip-path="url(#clip0_1890_42639)">
<mask id="mask0_1890_42639" style="mask-type:luminance" maskUnits="userSpaceOnUse" x="0" y="0" width="100" height="104">
<path d="M100 0H0V104H100V0Z" fill="white"/>
</mask>
<g mask="url(#mask0_1890_42639)">
<path d="M100 0H0V104H100V0Z" fill="#232323"/>
<path d="M49.9362 79.0047C66.1524 79.0047 79.2982 65.929 79.2982 49.7993C79.2982 33.6695 66.1524 20.5938 49.9362 20.5938C33.72 20.5938 20.5742 33.6695 20.5742 49.7993C20.5742 65.929 33.72 79.0047 49.9362 79.0047Z" fill="#D9D9D9"/>
<path d="M77.082 42.6113H75.6627C75.0053 42.2251 74.3065 41.9132 73.5794 41.6814C71.2877 40.9276 68.2617 40.5391 64.582 40.5391C60.9023 40.5391 57.8763 40.9276 55.5898 41.6814C53.7591 42.2888 52.9531 42.9584 52.6927 43.2187C51.8519 42.8189 50.9319 42.6113 50 42.6113C49.0681 42.6113 48.148 42.8189 47.3073 43.2187C47.0468 42.9597 46.2409 42.2888 44.4101 41.6814C42.1211 40.9276 39.095 40.5391 35.4153 40.5391C31.7357 40.5391 28.7096 40.9276 26.4232 41.6814C25.6961 41.9132 24.9972 42.2251 24.3398 42.6113H22.9153C22.3629 42.6113 21.8329 42.8297 21.4422 43.2182C21.0515 43.6069 20.832 44.134 20.832 44.6835C20.832 45.2331 21.0515 45.7602 21.4422 46.1489C21.8329 46.5374 22.3629 46.7558 22.9153 46.7558H22.9375C23.0677 52.6435 23.776 56.1818 25.2955 58.7009C26.2474 60.3272 27.7066 61.6004 29.4518 62.3273C31.0442 63.0059 32.9961 63.3362 35.4153 63.3362C38.5599 63.3362 43.0299 62.8557 45.5351 58.7035C46.7955 56.6131 47.5 53.8221 47.776 49.5701C47.8678 49.3334 47.9149 49.0817 47.9153 48.828C47.9153 48.2785 48.1349 47.7514 48.5255 47.3627C48.9163 46.9741 49.4462 46.7558 49.9987 46.7558C50.5511 46.7558 51.0811 46.9741 51.4718 47.3627C51.8625 47.7514 52.082 48.2785 52.082 48.828C52.0827 49.0809 52.1299 49.3316 52.2213 49.5675C52.4974 53.8195 53.2018 56.6105 54.4622 58.7009C55.414 60.3272 56.8733 61.6004 58.6185 62.3273C60.2109 63.0059 62.1627 63.3362 64.582 63.3362C67.7265 63.3362 72.1966 62.8557 74.7018 58.7035C76.2213 56.1844 76.9323 52.6461 77.0599 46.7584H77.082C77.6345 46.7584 78.1644 46.54 78.5552 46.1515C78.9458 45.7628 79.1653 45.2357 79.1653 44.6861C79.1653 44.1366 78.9458 43.6095 78.5552 43.2208C78.1644 42.8323 77.6345 42.6139 77.082 42.6139V42.6113Z" fill="#232323"/>
<path d="M42.9674 36.3945H27.8633V38.7257H42.9674V36.3945Z" fill="#232323"/>
<path d="M55.3386 68.6445H44.5312V70.3282H55.3386V68.6445Z" fill="#232323"/>
<path d="M72.6576 34.0625H53.3867V36.3938H72.6576V34.0625Z" fill="#232323"/>
</g>
</g>
<defs>
<clipPath id="clip0_1890_42639">
<rect width="100" height="104" rx="10" fill="white"/>
</clipPath>
</defs>
</svg>
