<svg width="107" height="105" viewBox="0 0 107 105" fill="none" xmlns="http://www.w3.org/2000/svg">
<path d="M18.9479 0H88.0521C98.5292 0 107 8.52564 107 19.0705V85.9295C107 96.4744 98.5292 105 88.0521 105H18.9479C8.47083 105 0 96.4744 0 85.9295V19.0705C0 8.52564 8.47083 0 18.9479 0Z" fill="#330000"/>
<path d="M51.8504 63H35.2654L31.8771 73.5448C31.7879 73.9487 31.4312 74.2179 31.03 74.173H22.6483C22.1579 74.173 22.0242 73.9038 22.1579 73.3653L36.5137 31.7692C36.6475 31.3205 36.7812 30.8269 36.9596 30.2884C37.1379 29.3461 37.2271 28.3589 37.2271 27.3718C37.1825 27.1474 37.3608 26.923 37.5837 26.8782C37.6283 26.8782 37.6729 26.8782 37.7175 26.8782H49.1308C49.4875 26.8782 49.6658 27.0128 49.7104 27.2371L65.9833 73.4551C66.1171 73.9487 65.9833 74.173 65.5375 74.173H56.2196C55.9075 74.2179 55.5954 73.9935 55.5062 73.6794L51.8504 63ZM37.8512 53.891H49.1754C48.9079 52.9487 48.5512 51.8269 48.15 50.6602C47.7487 49.4487 47.3475 48.1474 46.9463 46.8012C46.5004 45.4102 46.0992 44.0641 45.6533 42.673C45.2075 41.282 44.8062 39.9807 44.4496 38.6795C44.0929 37.423 43.7808 36.2564 43.4687 35.1795H43.3796C42.9783 37.1089 42.4879 39.0384 41.8637 40.9679C41.195 43.1218 40.5262 45.3653 39.8129 47.6089C39.1887 49.8974 38.52 52.0064 37.8512 53.891Z" fill="#FF9A00"/>
<path d="M75.7025 34.5513C74.2312 34.5961 72.8046 34.0128 71.7346 32.9808C70.7091 31.859 70.1741 30.3782 70.2187 28.8526C70.1741 27.3269 70.7537 25.891 71.8237 24.859C72.8937 23.8269 74.3204 23.2885 75.7916 23.2885C77.5304 23.2885 78.8679 23.8269 79.8487 24.859C80.8296 25.9359 81.3646 27.3718 81.32 28.8526C81.3646 30.3782 80.8296 31.859 79.7596 32.9808C78.7341 34.0577 77.2183 34.641 75.7025 34.5513ZM70.7092 73.5V38.9487C70.7092 38.5 70.8875 38.3205 71.2887 38.3205H80.1162C80.5175 38.3205 80.6958 38.5449 80.6958 38.9487V73.5C80.6958 73.9936 80.5175 74.2179 80.1162 74.2179H71.3779C70.9321 74.2179 70.7092 73.9487 70.7092 73.5Z" fill="#FF9A00"/>
</svg>
