<svg width="108" height="105" viewBox="0 0 108 105" fill="none" xmlns="http://www.w3.org/2000/svg">
<path d="M19.125 0H88.875C99.45 0 108 8.52564 108 19.0705V85.9295C108 96.4744 99.45 105 88.875 105H19.125C8.55 105 0 96.4744 0 85.9295V19.0705C0 8.52564 8.55 0 19.125 0Z" fill="#1D1B1B"/>
<g clip-path="url(#clip0_1_36)">
<path d="M41.7115 88.4211C48.3037 88.4211 53.6538 83.1084 53.6538 76.5625V64.704H41.7115C35.1194 64.704 29.7692 70.0166 29.7692 76.5625C29.7692 83.1084 35.1194 88.4211 41.7115 88.4211Z" fill="#0ACF83"/>
<path d="M29.7692 52.8454C29.7692 46.2994 35.1194 40.9868 41.7115 40.9868H53.6538V64.7039H41.7115C35.1194 64.7039 29.7692 59.3913 29.7692 52.8454Z" fill="#A259FF"/>
<path d="M29.7692 29.1283C29.7692 22.5824 35.1194 17.2698 41.7115 17.2698H53.6538V40.9869H41.7115C35.1194 40.9869 29.7692 35.6743 29.7692 29.1283Z" fill="#F24E1E"/>
<path d="M53.6539 17.2698H65.5962C72.1883 17.2698 77.5385 22.5824 77.5385 29.1283C77.5385 35.6743 72.1883 40.9869 65.5962 40.9869H53.6539V17.2698Z" fill="#FF7262"/>
<path d="M77.5385 52.8454C77.5385 59.3913 72.1883 64.7039 65.5962 64.7039C59.004 64.7039 53.6539 59.3913 53.6539 52.8454C53.6539 46.2994 59.004 40.9868 65.5962 40.9868C72.1883 40.9868 77.5385 46.2994 77.5385 52.8454Z" fill="#1ABCFE"/>
</g>
<defs>
<clipPath id="clip0_1_36">
<rect width="47.7692" height="71.1513" fill="white" transform="translate(29.7692 17.2698)"/>
</clipPath>
</defs>
</svg>
