<svg width="110" height="107" viewBox="0 0 110 107" fill="none" xmlns="http://www.w3.org/2000/svg">
<path d="M100.006 11.4619H52.7095C52.7095 16.9699 54.9589 22.2523 58.9628 26.147C62.9667 30.0418 68.3972 32.2298 74.0597 32.2298H82.7721V40.4124C82.7798 51.8718 92.3278 61.1598 104.108 61.1673V15.4529C104.108 13.2494 102.272 11.4619 100.006 11.4619Z" fill="#2684FF"/>
<path d="M76.6033 34.3857H29.3076C29.3149 45.8451 38.8629 55.1331 50.6439 55.1405H59.3564V63.3494C59.3714 74.8087 68.926 84.0903 80.7066 84.0903V38.3775C80.7066 36.1732 78.8694 34.3857 76.6033 34.3857Z" fill="url(#paint0_linear_981_11769)"/>
<path d="M53.1877 57.2949H5.8916C5.8916 68.7648 15.4508 78.0628 27.2418 78.0628H35.9816V86.2451C35.9893 97.694 45.5207 106.978 57.291 107V61.2863C57.291 59.082 55.4538 57.2949 53.1877 57.2949Z" fill="url(#paint1_linear_981_11769)"/>
<defs>
<linearGradient id="paint0_linear_981_11769" x1="12894.3" y1="57.2695" x2="7954.19" y2="5992.38" gradientUnits="userSpaceOnUse">
<stop offset="0.18" stop-color="#0052CC"/>
<stop offset="1" stop-color="#2684FF"/>
</linearGradient>
<linearGradient id="paint1_linear_981_11769" x1="13216.7" y1="121.966" x2="7493.1" y2="6605.64" gradientUnits="userSpaceOnUse">
<stop offset="0.18" stop-color="#0052CC"/>
<stop offset="1" stop-color="#2684FF"/>
</linearGradient>
</defs>
</svg>
