<svg width="110" height="107" viewBox="0 0 110 107" fill="none" xmlns="http://www.w3.org/2000/svg">
<path d="M19.4792 0H90.5208C101.292 0 110 8.68803 110 19.4338V87.5662C110 98.312 101.292 107 90.5208 107H19.4792C8.70833 107 0 98.312 0 87.5662V19.4338C0 8.68803 8.70833 0 19.4792 0Z" fill="#001E36"/>
<path d="M24.75 75.0372V27.9846C24.75 27.6645 24.8875 27.4816 25.2083 27.4816C25.9875 27.4816 26.7208 27.4816 27.775 27.4359C28.875 27.3902 30.0208 27.3902 31.2583 27.3445C32.4958 27.2987 33.825 27.2987 35.2458 27.253C36.6667 27.2073 38.0417 27.2073 39.4167 27.2073C43.175 27.2073 46.2917 27.6645 48.8583 28.6248C51.15 29.4021 53.2583 30.6825 55 32.3744C56.4667 33.8376 57.6125 35.6209 58.3458 37.5872C59.0333 39.5077 59.4 41.4739 59.4 43.5316C59.4 47.4641 58.4833 50.7107 56.65 53.2714C54.8167 55.8321 52.25 57.7526 49.2708 58.85C46.1542 59.9932 42.7167 60.4047 38.9583 60.4047C37.8583 60.4047 37.125 60.4047 36.6667 60.359C36.2083 60.3133 35.5667 60.3133 34.6958 60.3133V74.9915C34.7417 75.3115 34.5125 75.5859 34.1917 75.6316C34.1458 75.6316 34.1 75.6316 34.0083 75.6316H25.3C24.9333 75.6316 24.75 75.4487 24.75 75.0372ZM34.7417 36.3068V51.6709C35.3833 51.7167 35.9792 51.7624 36.5292 51.7624H38.9583C40.7458 51.7624 42.5333 51.488 44.2292 50.9393C45.6958 50.5278 46.9792 49.659 47.9875 48.5158C48.95 47.3727 49.4083 45.818 49.4083 43.806C49.4542 42.3885 49.0875 40.971 48.3542 39.7363C47.575 38.5474 46.475 37.6329 45.1458 37.1299C43.45 36.444 41.6167 36.1697 39.7375 36.2154C38.5458 36.2154 37.4917 36.2154 36.6208 36.2611C35.7042 36.2154 35.0625 36.2611 34.7417 36.3068Z" fill="#31A8FF"/>
<path d="M88 48.8817C86.625 48.1501 85.1583 47.6471 83.6 47.327C81.9042 46.9612 80.2083 46.7325 78.4667 46.7325C77.55 46.6868 76.5875 46.824 75.7167 47.0526C75.1208 47.1898 74.6167 47.5099 74.2958 47.9671C74.0667 48.333 73.9292 48.7902 73.9292 49.2018C73.9292 49.6133 74.1125 50.0248 74.3875 50.3906C74.8 50.8936 75.35 51.3052 75.9458 51.6253C77 52.174 78.1 52.677 79.2 53.1342C81.675 53.9573 84.0583 55.1005 86.2583 56.4723C87.7708 57.4325 89.0084 58.7129 89.8792 60.2676C90.6125 61.7308 90.9792 63.3313 90.9333 64.9774C90.9792 67.1266 90.3375 69.2757 89.1458 71.059C87.8625 72.8881 86.075 74.3056 84.0125 75.1287C81.7667 76.0889 79.0167 76.5919 75.7167 76.5919C73.6083 76.5919 71.5458 76.409 69.4833 75.9975C67.8792 75.7231 66.275 75.2201 64.8083 74.5342C64.4875 74.3513 64.2583 74.0313 64.3042 73.6654V65.709C64.3042 65.5718 64.35 65.3889 64.4875 65.2975C64.625 65.206 64.7625 65.2518 64.9 65.3432C66.6875 66.3949 68.5667 67.1265 70.5833 67.5838C72.325 68.0411 74.1583 68.2697 75.9917 68.2697C77.7333 68.2697 78.9708 68.0411 79.7958 67.6295C80.5292 67.3095 81.0333 66.5321 81.0333 65.709C81.0333 65.0689 80.6667 64.4744 79.9333 63.88C79.2 63.2855 77.6875 62.5996 75.4417 61.7308C73.1042 60.9077 70.95 59.8103 68.9333 58.4385C67.5125 57.4325 66.3208 56.1065 65.45 54.5518C64.7167 53.0885 64.35 51.4881 64.3958 49.8877C64.3958 47.9214 64.9458 46.0466 65.9542 44.3547C67.1 42.5257 68.7958 41.0624 70.7667 40.1479C72.9208 39.0505 75.625 38.5475 78.8792 38.5475C80.7583 38.5475 82.6833 38.6847 84.5625 38.959C85.9375 39.1419 87.2667 39.5077 88.5042 40.0107C88.6875 40.0565 88.8708 40.2394 88.9625 40.4223C89.0084 40.6052 89.0542 40.7881 89.0542 40.971V48.4244C89.0542 48.6073 88.9625 48.7902 88.825 48.8817C88.4125 48.9731 88.1833 48.9731 88 48.8817Z" fill="#31A8FF"/>
</svg>
