<svg width="16" height="16" viewBox="0 0 16 16" fill="none" xmlns="http://www.w3.org/2000/svg">
<g clip-path="url(#clip0_1187_12)">
<mask id="mask0_1187_12" style="mask-type:luminance" maskUnits="userSpaceOnUse" x="0" y="0" width="16" height="16">
<path d="M16 0H0V16H16V0Z" fill="white"/>
</mask>
<g mask="url(#mask0_1187_12)">
<path d="M5.65159 4.375C5.99655 4.375 6.31142 4.40572 6.59622 4.46652C6.88103 4.52732 7.12423 4.62716 7.32709 4.76604C7.52996 4.90492 7.68743 5.08924 7.79943 5.31964C7.91143 5.55004 7.96709 5.8342 7.96709 6.17276C7.96709 6.5382 7.88389 6.84287 7.71816 7.08667C7.55236 7.33053 7.30663 7.5302 6.98216 7.68573C7.42889 7.81433 7.76229 8.03967 7.98249 8.36093C8.20263 8.6822 8.31269 9.07007 8.31269 9.5238C8.31269 9.88927 8.24169 10.2061 8.09956 10.4735C7.95749 10.7411 7.76616 10.9593 7.52549 11.1283C7.28489 11.2979 7.01096 11.4227 6.70309 11.5039C6.39335 11.5853 6.07399 11.6262 5.75399 11.6255H2.23975V4.375H5.65159ZM5.44871 7.3094C5.73287 7.3094 5.96647 7.24153 6.14951 7.10653C6.33255 6.97087 6.42407 6.75133 6.42343 6.44668C6.42343 6.27772 6.39271 6.13884 6.33191 6.03068C6.27111 5.92252 6.18983 5.8374 6.08807 5.7766C5.98631 5.7158 5.86983 5.67356 5.73799 5.64988C5.6023 5.6262 5.46471 5.61404 5.32647 5.61468H3.83463V7.31067L5.44871 7.3094ZM5.54023 10.3859C5.69063 10.3865 5.84039 10.3711 5.98695 10.3405C6.12903 10.3097 6.25447 10.2591 6.36263 10.1881C6.47079 10.1171 6.55718 10.0205 6.62182 9.89887C6.68583 9.77727 6.71849 9.62107 6.71849 9.43167C6.71849 9.0598 6.61351 8.79353 6.40359 8.63487C6.19367 8.47547 5.91591 8.39613 5.57095 8.39613H3.83463V10.3865L5.54023 10.3859ZM10.3185 10.2335C10.5348 10.4435 10.8465 10.5485 11.2529 10.5485C11.5441 10.5485 11.7943 10.4755 12.0042 10.3302C12.2142 10.1849 12.3428 10.0307 12.3902 9.86813H13.6593C13.4564 10.4979 13.1447 10.9478 12.7249 11.2185C12.305 11.4893 11.7975 11.6249 11.2017 11.6249C10.7889 11.6249 10.4164 11.559 10.0849 11.4271C9.75336 11.2953 9.47236 11.1071 9.24196 10.8633C9.01156 10.6195 8.83369 10.3289 8.70889 9.99033C8.58409 9.6518 8.52136 9.27933 8.52136 8.87353C8.52136 8.48127 8.58536 8.1158 8.71396 7.77727C8.84263 7.43867 9.02569 7.1462 9.26249 6.89913C9.49929 6.65212 9.78216 6.45756 10.1105 6.31548C10.4388 6.1734 10.803 6.10236 11.2023 6.10236C11.649 6.10236 12.0382 6.18876 12.3703 6.36156C12.7018 6.53436 12.9745 6.76607 13.1876 7.05727C13.4007 7.34847 13.555 7.67993 13.6497 8.05247C13.7444 8.42493 13.7783 8.81407 13.7514 9.22047H9.96389C9.98376 9.68573 10.1022 10.0243 10.3185 10.2335ZM11.9486 7.47193C11.7758 7.28253 11.5134 7.1878 11.1614 7.1878C10.931 7.1878 10.7396 7.22687 10.5879 7.30427C10.4356 7.38233 10.314 7.47833 10.2225 7.59353C10.131 7.70873 10.067 7.83033 10.0298 7.959C9.99269 8.08767 9.97029 8.20287 9.96389 8.30393H12.3095C12.241 7.93913 12.1207 7.6614 11.9486 7.47193ZM9.71689 4.743H12.6474V5.5558H9.71689V4.743Z" fill="white"/>
</g>
</g>
<defs>
<clipPath id="clip0_1187_12">
<rect width="16" height="16" fill="white"/>
</clipPath>
</defs>
</svg>
