<svg width="21" height="21" viewBox="0 0 21 21" fill="none" xmlns="http://www.w3.org/2000/svg">
<path fill-rule="evenodd" clip-rule="evenodd" d="M4.5 5.94101C4.5 5.14551 5.14551 4.5 5.94101 4.5C6.73602 4.5 7.38153 5.14551 7.38203 5.94101C7.38203 6.73652 6.73652 7.39553 5.94101 7.39553C5.14551 7.39553 4.5 6.73652 4.5 5.94101ZM16.497 16.5001L16.5 16.4996V12.0985C16.5 9.94554 16.0365 8.28703 13.5195 8.28703C12.3095 8.28703 11.4975 8.95103 11.166 9.58053H11.131V8.48803H8.74443V16.4996H11.2295V12.5326C11.2295 11.4881 11.4275 10.478 12.7209 10.478C13.9955 10.478 14.0145 11.6701 14.0145 12.5996V16.5001H16.497ZM4.69812 8.48881H7.18615V16.5004H4.69812V8.48881Z" fill="white"/>
</svg>
