<svg width="38" height="12" viewBox="0 0 38 12" fill="none" xmlns="http://www.w3.org/2000/svg">
<path d="M2.46894 11.123C1.99954 11.123 1.57799 11.0342 1.2043 10.8564C0.835155 10.6742 0.543489 10.4167 0.329296 10.084C0.115103 9.7513 0.00800705 9.36165 0.00800705 8.91504V8.90137C0.00800705 8.45475 0.115103 8.07422 0.329296 7.75977C0.548046 7.44531 0.862499 7.19922 1.27266 7.02148C1.68737 6.83919 2.18867 6.72982 2.77656 6.69336L5.51777 6.5293V7.5752L2.98164 7.73926C2.47122 7.77116 2.09525 7.88053 1.85371 8.06738C1.61217 8.24967 1.49141 8.50716 1.49141 8.83984V8.85352C1.49141 9.19076 1.62129 9.45736 1.88105 9.65332C2.14082 9.84473 2.46894 9.94043 2.86543 9.94043C3.23457 9.94043 3.56269 9.86751 3.8498 9.72168C4.14147 9.57129 4.36934 9.37077 4.5334 9.12012C4.69746 8.86491 4.77949 8.5778 4.77949 8.25879V5.9209C4.77949 5.51074 4.65189 5.19857 4.39668 4.98438C4.14603 4.76562 3.77233 4.65625 3.27559 4.65625C2.86087 4.65625 2.52135 4.72917 2.25703 4.875C1.99726 5.02083 1.82409 5.22591 1.7375 5.49023L1.72383 5.51074H0.295116L0.301952 5.46289C0.361197 5.05273 0.522981 4.69727 0.787304 4.39648C1.05618 4.09115 1.4071 3.85417 1.84004 3.68555C2.27754 3.51693 2.77656 3.43262 3.33711 3.43262C3.96146 3.43262 4.4901 3.53288 4.92305 3.7334C5.36055 3.92936 5.69095 4.21419 5.91426 4.58789C6.14212 4.95703 6.25605 5.40137 6.25605 5.9209V11H4.77949V9.94727H4.67012C4.52428 10.1979 4.34199 10.4121 4.12324 10.5898C3.90449 10.763 3.65612 10.8952 3.37812 10.9863C3.10013 11.0775 2.79707 11.123 2.46894 11.123ZM12.399 11.123C12.0527 11.123 11.7337 11.0729 11.442 10.9727C11.1503 10.8678 10.8906 10.7197 10.6627 10.5283C10.4394 10.3324 10.2571 10.0999 10.1158 9.83105H9.99961V11H8.51621V0.664062H9.99961V4.75195H10.1158C10.248 4.48307 10.428 4.25293 10.6559 4.06152C10.8837 3.86556 11.1458 3.71517 11.442 3.61035C11.7382 3.50098 12.0572 3.44629 12.399 3.44629C13.0279 3.44629 13.5725 3.60352 14.0328 3.91797C14.4931 4.22786 14.8486 4.66992 15.0992 5.24414C15.3499 5.81836 15.4752 6.4974 15.4752 7.28125V7.29492C15.4752 8.07422 15.3476 8.75098 15.0924 9.3252C14.8417 9.89941 14.4863 10.3438 14.026 10.6582C13.5657 10.9681 13.0234 11.123 12.399 11.123ZM11.9752 9.85156C12.3899 9.85156 12.7454 9.74902 13.0416 9.54395C13.3378 9.33887 13.5634 9.04492 13.7184 8.66211C13.8779 8.2793 13.9576 7.82357 13.9576 7.29492V7.28125C13.9576 6.74805 13.8779 6.29232 13.7184 5.91406C13.5634 5.53125 13.3378 5.2373 13.0416 5.03223C12.7454 4.82259 12.3899 4.71777 11.9752 4.71777C11.565 4.71777 11.2096 4.82259 10.9088 5.03223C10.608 5.2373 10.3779 5.53125 10.2184 5.91406C10.0589 6.29688 9.9791 6.7526 9.9791 7.28125V7.29492C9.9791 7.81901 10.0589 8.27474 10.2184 8.66211C10.3779 9.04492 10.608 9.33887 10.9088 9.54395C11.2096 9.74902 11.565 9.85156 11.9752 9.85156ZM20.4834 11.1436C19.7588 11.1436 19.1322 10.9886 18.6035 10.6787C18.0794 10.3688 17.6761 9.92676 17.3936 9.35254C17.111 8.77376 16.9697 8.08789 16.9697 7.29492V7.28125C16.9697 6.48372 17.111 5.79785 17.3936 5.22363C17.6807 4.64941 18.0863 4.20736 18.6104 3.89746C19.139 3.58757 19.7633 3.43262 20.4834 3.43262C21.208 3.43262 21.8324 3.58757 22.3564 3.89746C22.8805 4.2028 23.2839 4.64486 23.5664 5.22363C23.8535 5.79785 23.9971 6.48372 23.9971 7.28125V7.29492C23.9971 8.08789 23.8535 8.77376 23.5664 9.35254C23.2839 9.92676 22.8805 10.3688 22.3564 10.6787C21.8369 10.9886 21.2126 11.1436 20.4834 11.1436ZM20.4834 9.89941C20.9072 9.89941 21.2673 9.79688 21.5635 9.5918C21.8597 9.38216 22.0853 9.08366 22.2402 8.69629C22.3952 8.30892 22.4727 7.8418 22.4727 7.29492V7.28125C22.4727 6.72982 22.3952 6.26042 22.2402 5.87305C22.0853 5.48568 21.8597 5.18945 21.5635 4.98438C21.2673 4.77474 20.9072 4.66992 20.4834 4.66992C20.0596 4.66992 19.6995 4.77474 19.4033 4.98438C19.1071 5.18945 18.8792 5.48568 18.7197 5.87305C18.5648 6.26042 18.4873 6.72982 18.4873 7.28125V7.29492C18.4873 7.8418 18.5648 8.30892 18.7197 8.69629C18.8792 9.08366 19.1071 9.38216 19.4033 9.5918C19.6995 9.79688 20.0596 9.89941 20.4834 9.89941ZM28.3354 11.1436C27.7794 11.1436 27.31 11.0365 26.9271 10.8223C26.5489 10.6035 26.2641 10.2891 26.0727 9.87891C25.8858 9.46419 25.7924 8.96517 25.7924 8.38184V3.57617H27.2758V8.0332C27.2758 8.64388 27.3965 9.10189 27.6381 9.40723C27.8796 9.71257 28.2738 9.86523 28.8207 9.86523C29.1124 9.86523 29.3721 9.82194 29.6 9.73535C29.8279 9.64421 30.0193 9.51432 30.1742 9.3457C30.3292 9.17708 30.4431 8.97428 30.516 8.7373C30.5935 8.50033 30.6322 8.23145 30.6322 7.93066V3.57617H32.1225V11H30.6322V9.87891H30.5229C30.4044 10.1432 30.2426 10.3711 30.0375 10.5625C29.8324 10.7493 29.5863 10.8929 29.2992 10.9932C29.0167 11.0934 28.6954 11.1436 28.3354 11.1436ZM37.158 11.0479C36.3468 11.0479 35.7589 10.8929 35.3943 10.583C35.0343 10.2686 34.8543 9.75586 34.8543 9.04492V4.74512H33.6922V3.57617H34.8543V1.70312H36.3719V3.57617H37.9646V4.74512H36.3719V8.68262C36.3719 9.08366 36.4516 9.37305 36.6111 9.55078C36.7706 9.72396 37.035 9.81055 37.4041 9.81055C37.5135 9.81055 37.6069 9.80827 37.6844 9.80371C37.7664 9.79915 37.8598 9.79232 37.9646 9.7832V10.9727C37.8462 10.9909 37.7186 11.0068 37.5818 11.0205C37.4451 11.0387 37.3038 11.0479 37.158 11.0479Z" fill="#5AEF52"/>
</svg>
