<svg width="40" height="16" viewBox="0 0 40 16" fill="none" xmlns="http://www.w3.org/2000/svg">
<g opacity="0.08">
<path d="M3.46894 13.123C2.99954 13.123 2.57799 13.0342 2.2043 12.8564C1.83516 12.6742 1.54349 12.4167 1.3293 12.084C1.1151 11.7513 1.00801 11.3617 1.00801 10.915V10.9014C1.00801 10.4548 1.1151 10.0742 1.3293 9.75977C1.54805 9.44531 1.8625 9.19922 2.27266 9.02148C2.68737 8.83919 3.18867 8.72982 3.77656 8.69336L6.51777 8.5293V9.5752L3.98164 9.73926C3.47122 9.77116 3.09525 9.88053 2.85371 10.0674C2.61217 10.2497 2.49141 10.5072 2.49141 10.8398V10.8535C2.49141 11.1908 2.62129 11.4574 2.88105 11.6533C3.14082 11.8447 3.46894 11.9404 3.86543 11.9404C4.23457 11.9404 4.56269 11.8675 4.8498 11.7217C5.14147 11.5713 5.36934 11.3708 5.5334 11.1201C5.69746 10.8649 5.77949 10.5778 5.77949 10.2588V7.9209C5.77949 7.51074 5.65189 7.19857 5.39668 6.98438C5.14603 6.76562 4.77233 6.65625 4.27559 6.65625C3.86087 6.65625 3.52135 6.72917 3.25703 6.875C2.99726 7.02083 2.82409 7.22591 2.7375 7.49023L2.72383 7.51074H1.29512L1.30195 7.46289C1.3612 7.05273 1.52298 6.69727 1.7873 6.39648C2.05618 6.09115 2.4071 5.85417 2.84004 5.68555C3.27754 5.51693 3.77656 5.43262 4.33711 5.43262C4.96146 5.43262 5.4901 5.53288 5.92305 5.7334C6.36055 5.92936 6.69095 6.21419 6.91426 6.58789C7.14212 6.95703 7.25605 7.40137 7.25605 7.9209V13H5.77949V11.9473H5.67012C5.52428 12.1979 5.34199 12.4121 5.12324 12.5898C4.90449 12.763 4.65612 12.8952 4.37812 12.9863C4.10013 13.0775 3.79707 13.123 3.46894 13.123ZM13.399 13.123C13.0527 13.123 12.7337 13.0729 12.442 12.9727C12.1503 12.8678 11.8906 12.7197 11.6627 12.5283C11.4394 12.3324 11.2571 12.0999 11.1158 11.8311H10.9996V13H9.51621V2.66406H10.9996V6.75195H11.1158C11.248 6.48307 11.428 6.25293 11.6559 6.06152C11.8837 5.86556 12.1458 5.71517 12.442 5.61035C12.7382 5.50098 13.0572 5.44629 13.399 5.44629C14.0279 5.44629 14.5725 5.60352 15.0328 5.91797C15.4931 6.22786 15.8486 6.66992 16.0992 7.24414C16.3499 7.81836 16.4752 8.4974 16.4752 9.28125V9.29492C16.4752 10.0742 16.3476 10.751 16.0924 11.3252C15.8417 11.8994 15.4863 12.3438 15.026 12.6582C14.5657 12.9681 14.0234 13.123 13.399 13.123ZM12.9752 11.8516C13.3899 11.8516 13.7454 11.749 14.0416 11.5439C14.3378 11.3389 14.5634 11.0449 14.7184 10.6621C14.8779 10.2793 14.9576 9.82357 14.9576 9.29492V9.28125C14.9576 8.74805 14.8779 8.29232 14.7184 7.91406C14.5634 7.53125 14.3378 7.2373 14.0416 7.03223C13.7454 6.82259 13.3899 6.71777 12.9752 6.71777C12.565 6.71777 12.2096 6.82259 11.9088 7.03223C11.608 7.2373 11.3779 7.53125 11.2184 7.91406C11.0589 8.29688 10.9791 8.7526 10.9791 9.28125V9.29492C10.9791 9.81901 11.0589 10.2747 11.2184 10.6621C11.3779 11.0449 11.608 11.3389 11.9088 11.5439C12.2096 11.749 12.565 11.8516 12.9752 11.8516ZM21.4834 13.1436C20.7588 13.1436 20.1322 12.9886 19.6035 12.6787C19.0794 12.3688 18.6761 11.9268 18.3936 11.3525C18.111 10.7738 17.9697 10.0879 17.9697 9.29492V9.28125C17.9697 8.48372 18.111 7.79785 18.3936 7.22363C18.6807 6.64941 19.0863 6.20736 19.6104 5.89746C20.139 5.58757 20.7633 5.43262 21.4834 5.43262C22.208 5.43262 22.8324 5.58757 23.3564 5.89746C23.8805 6.2028 24.2839 6.64486 24.5664 7.22363C24.8535 7.79785 24.9971 8.48372 24.9971 9.28125V9.29492C24.9971 10.0879 24.8535 10.7738 24.5664 11.3525C24.2839 11.9268 23.8805 12.3688 23.3564 12.6787C22.8369 12.9886 22.2126 13.1436 21.4834 13.1436ZM21.4834 11.8994C21.9072 11.8994 22.2673 11.7969 22.5635 11.5918C22.8597 11.3822 23.0853 11.0837 23.2402 10.6963C23.3952 10.3089 23.4727 9.8418 23.4727 9.29492V9.28125C23.4727 8.72982 23.3952 8.26042 23.2402 7.87305C23.0853 7.48568 22.8597 7.18945 22.5635 6.98438C22.2673 6.77474 21.9072 6.66992 21.4834 6.66992C21.0596 6.66992 20.6995 6.77474 20.4033 6.98438C20.1071 7.18945 19.8792 7.48568 19.7197 7.87305C19.5648 8.26042 19.4873 8.72982 19.4873 9.28125V9.29492C19.4873 9.8418 19.5648 10.3089 19.7197 10.6963C19.8792 11.0837 20.1071 11.3822 20.4033 11.5918C20.6995 11.7969 21.0596 11.8994 21.4834 11.8994ZM29.3354 13.1436C28.7794 13.1436 28.31 13.0365 27.9271 12.8223C27.5489 12.6035 27.2641 12.2891 27.0727 11.8789C26.8858 11.4642 26.7924 10.9652 26.7924 10.3818V5.57617H28.2758V10.0332C28.2758 10.6439 28.3965 11.1019 28.6381 11.4072C28.8796 11.7126 29.2738 11.8652 29.8207 11.8652C30.1124 11.8652 30.3721 11.8219 30.6 11.7354C30.8279 11.6442 31.0193 11.5143 31.1742 11.3457C31.3292 11.1771 31.4431 10.9743 31.516 10.7373C31.5935 10.5003 31.6322 10.2314 31.6322 9.93066V5.57617H33.1225V13H31.6322V11.8789H31.5229C31.4044 12.1432 31.2426 12.3711 31.0375 12.5625C30.8324 12.7493 30.5863 12.8929 30.2992 12.9932C30.0167 13.0934 29.6954 13.1436 29.3354 13.1436ZM38.158 13.0479C37.3468 13.0479 36.7589 12.8929 36.3943 12.583C36.0343 12.2686 35.8543 11.7559 35.8543 11.0449V6.74512H34.6922V5.57617H35.8543V3.70312H37.3719V5.57617H38.9646V6.74512H37.3719V10.6826C37.3719 11.0837 37.4516 11.373 37.6111 11.5508C37.7706 11.724 38.035 11.8105 38.4041 11.8105C38.5135 11.8105 38.6069 11.8083 38.6844 11.8037C38.7664 11.7992 38.8598 11.7923 38.9646 11.7832V12.9727C38.8462 12.9909 38.7186 13.0068 38.5818 13.0205C38.4451 13.0387 38.3038 13.0479 38.158 13.0479Z" fill="#5AEF52"/>
</g>
</svg>
